<svg width="20" height="20" viewBox="0 0 20 20" fill="none" xmlns="http://www.w3.org/2000/svg">
    <g clip-path="url(#clip0_7203_1812)">
        <g clip-path="url(#clip1_7203_1812)">
            <rect width="20" height="20" rx="6" fill="white" />
            <path
                d="M-0.315184 2.08594C-1.33634 3.41453 -2.10634 4.94584 -2.55469 6.60938H4.20826L-0.315184 2.08594Z"
                fill="#0052B4" />
            <path
                d="M22.5519 6.60933C22.1036 4.94584 21.3335 3.41453 20.3124 2.08594L15.7891 6.60933H22.5519Z"
                fill="#0052B4" />
            <path
                d="M-2.55469 13.3906C-2.10629 15.0541 -1.33629 16.5854 -0.315184 17.914L4.20811 13.3906H-2.55469Z"
                fill="#0052B4" />
            <path
                d="M17.914 -0.315133C16.5854 -1.33629 15.0542 -2.10629 13.3906 -2.55469V4.20821L17.914 -0.315133Z"
                fill="#0052B4" />
            <path
                d="M2.08594 20.3124C3.41453 21.3335 4.94584 22.1035 6.60933 22.5519V15.7891L2.08594 20.3124Z"
                fill="#0052B4" />
            <path
                d="M6.60928 -2.55469C4.94579 -2.10629 3.41448 -1.33629 2.08594 -0.315184L6.60928 4.20816V-2.55469Z"
                fill="#0052B4" />
            <path
                d="M13.3906 22.5519C15.0541 22.1035 16.5854 21.3335 17.914 20.3124L13.3906 15.7891V22.5519Z"
                fill="#0052B4" />
            <path
                d="M15.7891 13.3906L20.3124 17.914C21.3335 16.5855 22.1036 15.0541 22.5519 13.3906H15.7891Z"
                fill="#0052B4" />
            <path
                d="M22.89 8.30436H11.6957H11.6957V-2.88996C11.1406 -2.96222 10.5747 -3 10 -3C9.42521 -3 8.8594 -2.96222 8.30436 -2.88996V8.30426V8.30431H-2.88996C-2.96222 8.8594 -3 9.42531 -3 10C-3 10.5748 -2.96222 11.1406 -2.88996 11.6956H8.30426H8.30431V22.89C8.8594 22.9622 9.42521 23 10 23C10.5747 23 11.1406 22.9623 11.6956 22.89V11.6957V11.6957H22.89C22.9622 11.1406 23 10.5748 23 10C23 9.42531 22.9622 8.8594 22.89 8.30436Z"
                fill="#D80027" />
            <path
                d="M13.3906 13.3907L19.1917 19.1917C19.4585 18.925 19.713 18.6462 19.9558 18.3571L14.9893 13.3906H13.3906V13.3907Z"
                fill="#D80027" />
            <path
                d="M6.6136 13.3906H6.6135L0.8125 19.1916C1.0792 19.4584 1.35804 19.7129 1.64709 19.9558L6.6136 14.9892V13.3906Z"
                fill="#D80027" />
            <path
                d="M6.61208 6.6137V6.6136L0.811031 0.8125C0.544227 1.0792 0.289711 1.35804 0.046875 1.64709L5.01343 6.61365H6.61208V6.6137Z"
                fill="#D80027" />
            <path
                d="M13.3906 6.61213L19.1917 0.810981C18.925 0.544176 18.6462 0.28966 18.3571 0.046875L13.3906 5.01343V6.61213Z"
                fill="#D80027" />
        </g>
    </g>
    <defs>
        <clipPath id="clip0_7203_1812">
            <rect width="20" height="20" fill="white" />
        </clipPath>
        <clipPath id="clip1_7203_1812">
            <rect width="20" height="20" rx="6" fill="white" />
        </clipPath>
    </defs>
</svg>
    