<svg width="52" height="52" viewBox="0 0 52 52" fill="none" xmlns="http://www.w3.org/2000/svg">
<path d="M1.625 42.85C1.625 43.9546 2.52043 44.85 3.625 44.85H14.0063C15.1108 44.85 16.0063 43.9546 16.0063 42.85V11.4079C16.0063 9.74248 14.0899 8.80661 12.7765 9.8306L2.39527 17.9245C1.90919 18.3034 1.625 18.8854 1.625 19.5017V42.85Z" fill="#6768EE"/>
<path d="M35.75 42.85C35.75 43.9546 36.6454 44.85 37.75 44.85H48.1313C49.2358 44.85 50.1313 43.9546 50.1313 42.85V11.4079C50.1313 9.74248 48.2149 8.80661 46.9015 9.8306L36.5203 17.9245C36.0342 18.3034 35.75 18.8854 35.75 19.5017V42.85Z" fill="#6768EE"/>
<path d="M32.9922 42.85C32.9922 43.9546 32.0968 44.85 30.9922 44.85H20.6109C19.5064 44.85 18.6109 43.9546 18.6109 42.85V11.4079C18.6109 9.74248 20.5273 8.80661 21.8407 9.8306L32.2219 17.9245C32.708 18.3034 32.9922 18.8854 32.9922 19.5017V42.85Z" fill="#40E8CC"/>
</svg>
