<svg width="48" height="48" viewBox="0 0 48 48" fill="none" xmlns="http://www.w3.org/2000/svg">
<g clip-path="url(#clip0_4982_76041)">
<path d="M40.0244 13.6925L39.0579 21.1824L38.8163 22.8737L37.3666 33.6656C37.2861 34.2294 37.125 34.7932 36.8834 35.2764C36.8029 35.3569 36.8029 35.4375 36.7223 35.5985C36.7223 35.6791 36.6418 35.6791 36.6418 35.7596C36.5613 35.8401 36.5613 35.9207 36.4807 36.0012C36.3197 36.1623 36.1586 36.4039 35.9975 36.565C35.9975 36.6455 35.917 36.6455 35.8364 36.726C35.7559 36.8066 35.6754 36.8871 35.5948 36.9677C35.5948 36.9677 35.5948 36.9677 35.5143 37.0482L29.474 41.8804L28.1049 43.0079L23.3532 46.7932C21.5009 48.3234 18.7626 48.3234 16.9103 46.7932L4.58811 37.0482C3.54113 36.2428 2.89684 35.0348 2.73577 33.6656L0.078047 13.6925C-0.244101 11.518 0.883416 9.50456 2.8163 8.45758L17.7156 0.564964C19.2458 -0.240405 21.0176 -0.240405 22.5478 0.564964L37.4472 8.45758C39.219 9.42403 40.3465 11.518 40.0244 13.6925Z" fill="#6768EE"/>
<path d="M36.4823 38.2584L31.2474 42.4464C30.6031 42.2853 29.9588 42.1242 29.395 41.8826L28.0259 43.0101C23.9185 40.9162 21.4219 36.7282 21.4219 32.1376C21.4219 25.3725 26.8984 19.9766 33.583 19.9766C35.5158 19.9766 37.3682 20.3792 39.0595 21.2652L38.8179 22.9564C39.3816 23.2786 39.8648 23.6007 40.348 24.0034" fill="white"/>
<path d="M44.1367 32.1367C44.1367 37.9354 39.4656 42.6871 33.5864 42.6871C32.781 42.6871 32.0562 42.6065 31.2508 42.4455C30.6065 42.2844 29.9622 42.1233 29.3984 41.8817L35.4387 37.0495C35.4387 37.0495 35.4387 37.0495 35.5192 36.969C35.5998 36.8884 35.6803 36.8079 35.7609 36.7273C35.8414 36.6468 35.8414 36.6468 35.9219 36.5663C36.0025 36.4857 36.083 36.4052 36.1635 36.3247C36.2441 36.2441 36.3246 36.0831 36.4051 36.0025C36.4857 35.922 36.5662 35.8414 36.5662 35.7609C36.6468 35.6804 36.6468 35.6804 36.6468 35.5998C36.7273 35.5193 36.7273 35.4388 36.8078 35.2777C37.0494 34.7945 37.2105 34.2307 37.2911 33.6669L38.7407 22.875C39.3045 23.1971 39.7877 23.5193 40.2709 23.922C42.687 25.8549 44.1367 28.8347 44.1367 32.1367Z" fill="#6768EE"/>
<path d="M38.8165 22.8754L37.3668 33.6674C37.2057 34.9559 36.4809 36.164 35.5145 37.0499L29.4742 41.8821C25.689 40.2714 23.0312 36.4861 23.0312 32.1372C23.0312 26.258 27.7829 21.5868 33.5816 21.5868C35.5145 21.5063 37.2863 21.9895 38.8165 22.8754Z" fill="#FFD8DC"/>
<path d="M38.8165 22.8754L37.3668 33.6674C37.2057 34.9559 36.4809 36.164 35.5145 37.0499L29.4742 41.8821C25.689 40.2714 23.0312 36.4861 23.0312 32.1372C23.0312 26.258 27.7829 21.5868 33.5816 21.5868C35.5145 21.5063 37.2863 21.9895 38.8165 22.8754Z" fill="#40E8CC"/>
<path d="M47.4169 42.5816C47.792 42.9566 48.0027 43.4654 48.0027 43.9958V46.8037C48.0027 47.4641 47.4673 47.9996 46.8068 47.9996C46.4896 47.9996 46.1855 47.8736 45.9612 47.6493L42.4457 44.1338C41.5598 43.2479 41.5598 41.7982 42.4457 40.8318C42.9289 40.3486 43.4927 40.1875 44.0564 40.1875C44.6202 40.1875 45.2645 40.4291 45.6672 40.8318L47.4169 42.5816Z" fill="#6768EE"/>
</g>
<defs>
<clipPath id="clip0_4982_76041">
<rect width="48" height="48" fill="white"/>
</clipPath>
</defs>
</svg>
