<svg width="52" height="52" viewBox="0 0 52 52" fill="none" xmlns="http://www.w3.org/2000/svg">
<g clip-path="url(#clip0_4982_76031)">
<path d="M52 30.4375C52 29.3329 51.1046 28.4375 50 28.4375H9.3125C8.20793 28.4375 7.3125 29.3329 7.3125 30.4375V41.875C7.3125 42.9796 8.20793 43.875 9.3125 43.875H50C51.1046 43.875 52 42.9796 52 41.875V30.4375Z" fill="#6768EE"/>
<path d="M27.625 13.8125H25.1875V28.4375H27.625V13.8125Z" fill="#6768EE"/>
<path d="M27.625 27.8125C27.625 27.2602 27.1773 26.8125 26.625 26.8125H26.1875C25.6352 26.8125 25.1875 27.2602 25.1875 27.8125V51C25.1875 51.5523 25.6352 52 26.1875 52H26.625C27.1773 52 27.625 51.5523 27.625 51V27.8125Z" fill="#6768EE"/>
<path d="M27.625 28.4375H25.1875V43.875H27.625V28.4375Z" fill="white"/>
<path d="M6.875 19.5C5.77043 19.5 4.86297 18.6014 4.98893 17.5041C6.11625 7.68289 15.4697 0 26.8125 0C38.1553 0 47.5088 7.68289 48.6361 17.504C48.762 18.6014 47.8546 19.5 46.75 19.5H6.875Z" fill="#6768EE"/>
<path d="M7.0729 29.1029C7.45991 28.7311 8.07134 28.7311 8.45835 29.1029L14.7671 35.1626C15.1639 35.5437 15.1783 36.1737 14.7994 36.5726L8.49062 43.2134C8.09637 43.6284 7.43488 43.6284 7.04063 43.2134L0.731844 36.5726C0.352938 36.1737 0.367357 35.5437 0.764114 35.1626L7.0729 29.1029Z" fill="#40E8CC"/>
</g>
<defs>
<clipPath id="clip0_4982_76031">
<rect width="52" height="52" fill="white"/>
</clipPath>
</defs>
</svg>
