<svg width="48" height="48" viewBox="0 0 48 48" fill="none" xmlns="http://www.w3.org/2000/svg">
<g clip-path="url(#clip0_5086_138092)">
<path d="M46 0H2C0.895431 0 0 0.895432 0 2V4.4C0 5.50457 0.895432 6.4 2 6.4H46C47.1046 6.4 48 5.50457 48 4.4V2C48 0.89543 47.1046 0 46 0Z" fill="#40E8CC"/>
<path d="M39 0H9C8.44772 0 8 0.447716 8 1V5.4C8 5.95228 8.44772 6.4 9 6.4H39C39.5523 6.4 40 5.95228 40 5.4V1C40 0.447715 39.5523 0 39 0Z" fill="#6768EE"/>
<path d="M38 8.79688C39.1046 8.79688 40 9.69231 40 10.7969V43.7608C40 45.4507 38.034 46.3789 36.7291 45.3051L25.2343 35.8454C24.4946 35.2366 23.4271 35.2379 22.6888 35.8485L11.2746 45.2886C9.97065 46.367 8 45.4396 8 43.7474V10.7969C8 9.69231 8.89543 8.79688 10 8.79688H38Z" fill="#6768EE"/>
</g>
<defs>
<clipPath id="clip0_5086_138092">
<rect width="48" height="48" fill="white"/>
</clipPath>
</defs>
</svg>
