<svg width="64" height="64" viewBox="0 0 64 64" fill="none" xmlns="http://www.w3.org/2000/svg">
<g clip-path="url(#clip0_4982_76116)">
<path d="M36.499 21.5354V27.6983H26.4531V21.5354C26.5208 18.1266 28.7332 15.395 31.4873 15.3047C34.2415 15.3047 36.4764 18.0814 36.499 21.5354Z" fill="#7384FF"/>
<path d="M2.49219 28.0039C1.38762 28.0039 0.483853 27.1053 0.571574 26.0042C1.72804 11.488 15.3751 0 31.9966 0C48.6181 0 62.2651 11.488 63.4216 26.0042C63.5093 27.1053 62.6055 28.0039 61.501 28.0039H2.49219Z" fill="#6768EE"/>
<path d="M36 37.5V26.5C36 23.4624 33.5376 21 30.5 21C27.4624 21 25 23.4624 25 26.5V37.5C25 40.5376 27.4624 43 30.5 43C33.5376 43 36 40.5376 36 37.5Z" fill="white"/>
<path d="M52.9545 50.7531C52.9545 58.0691 47.0237 63.9999 39.7077 63.9999C32.3917 63.9999 26.4609 58.0691 26.4609 50.7531V37.7578L50.7712 41.6046C52.0286 41.8035 52.9545 42.8875 52.9545 44.1605V50.7531Z" fill="#40E8CC"/>
<path d="M34.3692 39.2021V26.6104C34.3692 24.4266 32.5989 22.6562 30.4151 22.6562C28.2313 22.6562 26.4609 24.4266 26.4609 26.6104V39.2021C26.4609 41.3859 28.2313 43.1562 30.4151 43.1562C32.5989 43.1562 34.3692 41.3859 34.3692 39.2021Z" fill="#40E8CC"/>
</g>
<defs>
<clipPath id="clip0_4982_76116">
<rect width="64" height="64" fill="white"/>
</clipPath>
</defs>
</svg>
